# xmcd
#
# Track frame offsets: 
#        182
#        18190
#        37890
#        52695
#        68530
#        90992
#        111317
#        132670
#        146750
#        168487
#
# Disc length: 2485 seconds
#
# Revision: 16
# Processed by: cddbd v1.5.2PL0 Copyright (c) Steve Scherf et al.
# Submitted via: ExactAudioCopy v1.3
#
DISCID=7b09b30a
DTITLE=Emmylou Harris, Linda Ronstadt, Dolly Parton - Trio II
DYEAR=1999
DGENRE=Country
TTITLE0=Lover's Return
TTITLE1=High Sierra
TTITLE2=Do I Ever Cross Your Mind
TTITLE3=After the Gold Rush
TTITLE4=The Blue Train
TTITLE5=I Feel the Blues Movin' In
TTITLE6=You'll Never Be the Sun
TTITLE7=He Rode All the Way to Texas
TTITLE8=Feels Like Home
TTITLE9=When We're Gone, Long Gone
EXTD=YEAR: 1999
EXTT0=
EXTT1=
EXTT2=
EXTT3=
EXTT4=
EXTT5=
EXTT6=
EXTT7=
EXTT8=
EXTT9=
PLAYORDER=
